<svg width="133" height="21" viewBox="0 0 133 21" fill="none"
    xmlns="http://www.w3.org/2000/svg">
    <path d="M17.304 3.152L11.328 20H6.192L0.216 3.152H4.584L8.76 15.872L12.96 3.152H17.304ZM21.0833 5.216C20.3633 5.216 19.7713 5.008 19.3073 4.592C18.8593 4.16 18.6353 3.632 18.6353 3.008C18.6353 2.368 18.8593 1.84 19.3073 1.424C19.7713 0.991999 20.3633 0.775999 21.0833 0.775999C21.7873 0.775999 22.3633 0.991999 22.8113 1.424C23.2753 1.84 23.5073 2.368 23.5073 3.008C23.5073 3.632 23.2753 4.16 22.8113 4.592C22.3633 5.008 21.7873 5.216 21.0833 5.216ZM23.1233 6.608V20H19.0193V6.608H23.1233ZM33.5614 16.52V20H31.4734C29.9854 20 28.8254 19.64 27.9934 18.92C27.1614 18.184 26.7454 16.992 26.7454 15.344V10.016H25.1134V6.608H26.7454V3.344H30.8494V6.608H33.5374V10.016H30.8494V15.392C30.8494 15.792 30.9454 16.08 31.1374 16.256C31.3294 16.432 31.6494 16.52 32.0974 16.52H33.5614ZM48.4714 13.088C48.4714 13.472 48.4474 13.872 48.3994 14.288H39.1114C39.1754 15.12 39.4394 15.76 39.9034 16.208C40.3834 16.64 40.9674 16.856 41.6554 16.856C42.6794 16.856 43.3914 16.424 43.7914 15.56H48.1594C47.9354 16.44 47.5274 17.232 46.9354 17.936C46.3594 18.64 45.6314 19.192 44.7514 19.592C43.8714 19.992 42.8874 20.192 41.7994 20.192C40.4874 20.192 39.3194 19.912 38.2954 19.352C37.2714 18.792 36.4714 17.992 35.8954 16.952C35.3194 15.912 35.0314 14.696 35.0314 13.304C35.0314 11.912 35.3114 10.696 35.8714 9.656C36.4474 8.616 37.2474 7.816 38.2714 7.256C39.2954 6.696 40.4714 6.416 41.7994 6.416C43.0954 6.416 44.2474 6.688 45.2554 7.232C46.2634 7.776 47.0474 8.552 47.6074 9.56C48.1834 10.568 48.4714 11.744 48.4714 13.088ZM44.2714 12.008C44.2714 11.304 44.0314 10.744 43.5514 10.328C43.0714 9.912 42.4714 9.704 41.7514 9.704C41.0634 9.704 40.4794 9.904 39.9994 10.304C39.5354 10.704 39.2474 11.272 39.1354 12.008H44.2714ZM67.8424 3.152V6.44H63.3784V20H59.2744V6.44H54.8104V3.152H67.8424ZM74.0061 8.84C74.4861 8.104 75.0861 7.528 75.8061 7.112C76.5261 6.68 77.3261 6.464 78.2061 6.464V10.808H77.0781C76.0541 10.808 75.2861 11.032 74.7741 11.48C74.2621 11.912 74.0061 12.68 74.0061 13.784V20H69.9021V6.608H74.0061V8.84ZM93.3917 6.608V20H89.2877V18.176C88.8717 18.768 88.3037 19.248 87.5837 19.616C86.8797 19.968 86.0957 20.144 85.2317 20.144C84.2077 20.144 83.3037 19.92 82.5197 19.472C81.7357 19.008 81.1277 18.344 80.6957 17.48C80.2637 16.616 80.0477 15.6 80.0477 14.432V6.608H84.1277V13.88C84.1277 14.776 84.3597 15.472 84.8237 15.968C85.2877 16.464 85.9117 16.712 86.6957 16.712C87.4957 16.712 88.1277 16.464 88.5917 15.968C89.0557 15.472 89.2877 14.776 89.2877 13.88V6.608H93.3917ZM103.06 10.016H100.852V20H96.7476V10.016H95.2596V6.608H96.7476V6.224C96.7476 4.576 97.2196 3.328 98.1636 2.48C99.1076 1.616 100.492 1.184 102.316 1.184C102.62 1.184 102.844 1.192 102.988 1.208V4.688C102.204 4.64 101.652 4.752 101.332 5.024C101.012 5.296 100.852 5.784 100.852 6.488V6.608H103.06V10.016ZM104.172 13.28C104.172 11.904 104.428 10.696 104.94 9.656C105.468 8.616 106.18 7.816 107.076 7.256C107.972 6.696 108.972 6.416 110.076 6.416C111.02 6.416 111.844 6.608 112.548 6.992C113.268 7.376 113.82 7.88 114.204 8.504V6.608H118.308V20H114.204V18.104C113.804 18.728 113.244 19.232 112.524 19.616C111.82 20 110.996 20.192 110.052 20.192C108.964 20.192 107.972 19.912 107.076 19.352C106.18 18.776 105.468 17.968 104.94 16.928C104.428 15.872 104.172 14.656 104.172 13.28ZM114.204 13.304C114.204 12.28 113.916 11.472 113.34 10.88C112.78 10.288 112.092 9.992 111.276 9.992C110.46 9.992 109.764 10.288 109.188 10.88C108.628 11.456 108.348 12.256 108.348 13.28C108.348 14.304 108.628 15.12 109.188 15.728C109.764 16.32 110.46 16.616 111.276 16.616C112.092 16.616 112.78 16.32 113.34 15.728C113.916 15.136 114.204 14.328 114.204 13.304ZM126.725 20.192C125.557 20.192 124.517 19.992 123.605 19.592C122.693 19.192 121.973 18.648 121.445 17.96C120.917 17.256 120.621 16.472 120.557 15.608H124.613C124.661 16.072 124.877 16.448 125.261 16.736C125.645 17.024 126.117 17.168 126.677 17.168C127.189 17.168 127.581 17.072 127.853 16.88C128.141 16.672 128.285 16.408 128.285 16.088C128.285 15.704 128.085 15.424 127.685 15.248C127.285 15.056 126.637 14.848 125.741 14.624C124.781 14.4 123.981 14.168 123.341 13.928C122.701 13.672 122.149 13.28 121.685 12.752C121.221 12.208 120.989 11.48 120.989 10.568C120.989 9.8 121.197 9.104 121.613 8.48C122.045 7.84 122.669 7.336 123.485 6.968C124.317 6.6 125.301 6.416 126.437 6.416C128.117 6.416 129.437 6.832 130.397 7.664C131.373 8.496 131.933 9.6 132.077 10.976H128.285C128.221 10.512 128.013 10.144 127.661 9.872C127.325 9.6 126.877 9.464 126.317 9.464C125.837 9.464 125.469 9.56 125.213 9.752C124.957 9.928 124.829 10.176 124.829 10.496C124.829 10.88 125.029 11.168 125.429 11.36C125.845 11.552 126.485 11.744 127.349 11.936C128.341 12.192 129.149 12.448 129.773 12.704C130.397 12.944 130.941 13.344 131.405 13.904C131.885 14.448 132.133 15.184 132.149 16.112C132.149 16.896 131.925 17.6 131.477 18.224C131.045 18.832 130.413 19.312 129.581 19.664C128.765 20.016 127.813 20.192 126.725 20.192Z" fill="white"/>
</svg>
